<?xml version="1.0" encoding="UTF-8"?><svg id="_レイヤー_1" xmlns="http://www.w3.org/2000/svg" viewBox="0 0 500 500"><defs><style>.cls-1{fill:#e60012;font-size:50.66px;}.cls-1,.cls-2{font-family:BIZ-UDGothic-Bold, 'BIZ UDGothic';}.cls-2{fill:#231815;font-size:28.56px;}.cls-3{fill:#ea5514;}.cls-4{fill:#54173d;}.cls-5{fill:#faef50;}</style></defs><path class="cls-5" d="M380.39,459.78c-86.92,28.76-173.85,28.76-260.77,0-11.29-3.74-18.91-14.3-18.91-26.2V111.67c0-45.7,37.05-82.75,82.75-82.75h133.1c45.7,0,82.75,37.05,82.75,82.75V433.59c0,11.89-7.62,22.46-18.91,26.2Z"/><path class="cls-4" d="M131.96,75.95h236.09c10.66,0,19.32,8.65,19.32,19.32v163.78c0,2.59-2.1,4.69-4.69,4.69H117.33c-2.59,0-4.69-2.1-4.69-4.69V95.27c0-10.66,8.65-19.32,19.32-19.32Z"/><path class="cls-3" d="M117.33,277.09H382.67c2.59,0,4.69,2.1,4.69,4.69v132.81c0,10.66-8.65,19.32-19.32,19.32H131.96c-10.66,0-19.32-8.65-19.32-19.32v-132.81c0-2.59,2.1-4.69,4.69-4.69Z"/><text class="cls-2" transform="translate(164.33 317.28)"><tspan x="0" y="0">お降りの方は</tspan><tspan x="0" y="49.98">このボタンを</tspan><tspan x="-14.28" y="99.95">押してください</tspan></text><text class="cls-1" transform="translate(123.35 190.15)"><tspan x="0" y="0">とまります</tspan></text></svg>